:SAMPLES-PER-SECOND 30
:FULLY-SPECIFIED
:DEGREES
81
root  22.1366 38.6704 12.2286 -175.733 -63.8977 170.436
RightUpLeg  9.20479 -0.664899 -11.7406
RightLeg  37.2281 9.65925 7.52608
RightFoot  -6.83398 -0.525469 12.1762
RightToes  0.00048216 0.542163 -0.142577
Spine  11.1896 0.187077 -2.55455
Spine1  5.93203 -2.2664 9.34738
HEad  -17.7682 16.698 -3.8672
LeftShoulder1  7.19563 -12.0921 -39.8942
LeftArm  -10.3063 31.9335 -35.3754
LeftForeArm  40.4349 -6.88061 -5.01129
LeftHand  -0.25398 0.0180481 5.50724
RightShoulder  0.628561 -0.915928 17.6627
RightArm  -58.3969 20.0706 3.1241
RightForeArm  144.856 70.8298 148.618
RightHand  -8.27896 19.2406 -38.0231
LeftUpLeg  -19.3509 17.1061 -9.89587
LeftLeg  17.7929 8.33458 2.97234
LeftFoot  2.2942 -1.16494 9.60755
LeftToes  1.06245e-005 4.65855e-005 -8.18504e-006
82
root  20.5646 38.5981 12.1292 -174.169 -63.1878 167.488
RightUpLeg  3.00077 3.35974 -13.0237
RightLeg  49.6465 7.00988 8.41352
RightFoot  6.1014 -1.89049 12.6999
RightToes  0.00048216 0.542163 -0.142577
Spine  12.8609 0.330393 -5.24885
Spine1  5.60943 -2.68668 10.081
HEad  -17.9736 17.9254 -4.36173
LeftShoulder1  7.33426 -12.2271 -40.3535
LeftArm  -9.91291 29.4436 -35.2777
LeftForeArm  40.6835 -6.74044 -5.17182
LeftHand  -0.25398 0.0180481 5.50724
RightShoulder  0.818767 -0.260549 18.6995
RightArm  -55.7962 17.6779 3.86319
RightForeArm  147.884 68.8339 152.067
RightHand  -8.76315 20.2001 -38.6642
LeftUpLeg  -17.5969 16.6942 -11.4583
LeftLeg  21.6938 9.75246 4.64636
LeftFoot  -2.05276 -0.766147 9.48288
LeftToes  1.06245e-005 4.65855e-005 -8.18504e-006
83
root  19.1085 38.5569 12.0482 -172.5 -62.3957 164.805
RightUpLeg  -4.11683 6.37801 -14.1538
RightLeg  59.5308 4.38972 7.52423
RightFoot  13.8155 -2.35347 10.9387
RightToes  0.00048216 0.542163 -0.142577
Spine  14.1735 0.357593 -7.39433
Spine1  5.71832 -3.20209 10.0337
HEad  -18.5823 19.4559 -5.85253
LeftShoulder1  7.47441 -12.4123 -40.6734
LeftArm  -9.54087 26.1258 -35.1016
LeftForeArm  41.6848 -7.62018 -5.36209
LeftHand  -0.25398 0.0180481 5.50724
RightShoulder  1.11339 0.747481 19.7388
RightArm  -51.638 15.4669 4.66708
RightForeArm  148.928 67.2512 154.224
RightHand  -9.32139 21.0482 -39.7058
LeftUpLeg  -15.3615 17.2504 -12.9183
LeftLeg  23.6873 10.3967 5.30834
LeftFoot  -6.06191 -0.358705 8.6167
LeftToes  1.06245e-005 4.65855e-005 -8.18504e-006
84
root  17.564 38.796 11.9972 -172.712 -62.685 164.765
RightUpLeg  -10.2763 6.83488 -13.9899
RightLeg  64.0333 2.14033 4.26459
RightFoot  13.2811 -1.69508 8.11618
RightToes  0.00048216 0.542163 -0.142577
Spine  14.9422 -0.268393 -7.46101
Spine1  5.38334 -4.0007 10.6003
HEad  -19.1533 21.0951 -8.03685
LeftShoulder1  7.44229 -12.3373 -40.6908
LeftArm  -8.90537 22.5784 -35.2791
LeftForeArm  42.3156 -9.95505 -5.44705
LeftHand  -0.25398 0.0180481 5.50724
RightShoulder  1.3926 1.67711 20.4945
RightArm  -45.0576 13.4011 4.74999
RightForeArm  148.926 66.6422 154.928
RightHand  -9.62333 21.3571 -40.44
LeftUpLeg  -11.7282 17.8093 -13.0526
LeftLeg  22.2213 9.65936 4.4312
LeftFoot  -7.57443 -0.240743 8.70364
LeftToes  1.06245e-005 4.65855e-005 -8.18504e-006
85
root  16.0041 39.1853 11.9543 -174.279 -64.237 166.645
RightUpLeg  -15.0767 5.2999 -12.486
RightLeg  62.9009 0.433046 0.408507
RightFoot  8.8125 -0.957529 5.73921
RightToes  0.00048216 0.542163 -0.142577
Spine  15.6831 -1.24844 -6.37325
Spine1  4.34245 -5.03692 12.0863
HEad  -19.5397 22.4391 -10.1864
LeftShoulder1  7.27672 -12.1116 -40.3308
LeftArm  -6.23035 19.6038 -35.9087
LeftForeArm  39.8049 -14.7447 -4.76911
LeftHand  -0.25398 0.0180481 5.50724
RightShoulder  1.54632 2.2017 20.7352
RightArm  -35.9795 11.0079 3.80769
RightForeArm  148.999 67.2183 154.261
RightHand  -9.88956 21.8058 -40.8349
LeftUpLeg  -7.54827 15.9224 -11.7746
LeftLeg  19.4537 10.2446 2.95238
LeftFoot  -8.24739 -0.193138 8.95849
LeftToes  1.06245e-005 4.65855e-005 -8.18504e-006
